<?xml version="1.0" encoding="UTF-8"?>
<svg id="Layer_2" data-name="Layer 2" xmlns="http://www.w3.org/2000/svg" viewBox="0 0 410.88 77.44">
  <defs>
    <style>
      .cls-1 {
        fill: #47bfda;
      }

      .cls-2 {
        fill: #3ca9d3;
      }

      .cls-3 {
        fill: #808285;
        font-family: OpenSans-Bold, 'Open Sans';
        font-weight: 700;
      }

      .cls-4 {
        fill: #69c3df;
      }

      .cls-5 {
        fill: #72c8f1;
      }

      .cls-6 {
        font-size: 66.21px;
      }

      .cls-7 {
        font-size: 20.43px;
      }

      .cls-8 {
        fill: #6dc8c7;
      }

      .cls-9 {
        fill: #51b1d5;
      }

      .cls-10 {
        fill: #74c5df;
      }

      .cls-11 {
        fill: #6fc8c7;
      }

      .cls-12 {
        fill: #8ec9e0;
      }

      .cls-13 {
        fill: #6dc9c7;
      }

      .cls-14 {
        fill: #4eb9d9;
      }
    </style>
  </defs>
  <g id="Layer_1-2" data-name="Layer 1">
    <g>
      <text class="cls-3" transform="translate(91.46 57.91)"><tspan class="cls-6" x="0" y="0">AI</tspan><tspan class="cls-7" x="67.6" y="0"> </tspan><tspan class="cls-6" x="72.91" y="0">LINKRA</tspan></text>
      <g>
        <path class="cls-8" d="M52.21,18.29c-.93-2.6-7.47-13.8-9.36-15.73-1.31-1.33-3.41-2.39-5.28-2.56-.48-.04-.98.03-1.47,0l-1.76.37c-2.33.68-4.11,2.42-5.4,4.42-5.34,8.29-10.35,18.82-15.27,27.59l-.29.44c-.65,1.17-1.26,2.35-1.91,3.52l-.44.73c-.9,1.62-2.06,3.23-2.64,4.98-.17-.26-.52-.62-.95-1.01-.18.27-.47.46-.87.48-.03.07-.07.13-.1.2-.09.31-.12.65-.24.95-.03.08-.06.15-.1.22l.96,1c-1.17,1.91-2.54,3.83-3.54,5.84-.56,1.11-1.34,2.51-1.44,3.76.1.23.1.47,0,.73-1.03,4.86,5.24,9.72,9.82,8.64.26-.1.51-.1.73,0,1.65-.22,3.99-1.07,4.58-2.82.48-1.43-.31-.99-1.35-.84l-.44.15s-.1,0-.15,0l-.44.15c-3.06.14-6.96.54-8.77-2.44-2.38-3.92,1.49-7.19,3.37-10.35,7.66-12.83,14.36-26.65,22.19-39.34,8.24-13.34,14.89,10.38,18.96,15.44.47.57.58-.8.75-1.15.69-1.43,1.43-1.72.85-3.34Z"/>
        <path class="cls-8" d="M46.52,30.69c-.5-1.43-4.26-8.34-5.21-9.44-2.3-2.68-5.53-2.53-7.67.25-2.03,2.64-5.04,8.1-6.78,10.97-3.67,6.03-6.93,12.35-10.68,18.37l-.44.15c-.98.35-1.62.12-2.42,1.17-2.09,2.72,0,6.11,3.3,5.72l1.03-.29c1.59-.73,2.44-2.38,2.09-4.1-.17-.86-.74-.59-.36-1.71.47-1.38,7.16-12.61,8.17-13.8.12-.14.47-.39.64-.46.53-.09,1.08-.15,1.61,0,1.4,0,2.88.18,4.25,0l7.62-.15c.33-.15,1.89-2.82,1.76-2.93-.38-.11-.77-.16-1.17-.15-.24-.01-.49,0-.73,0h-1.76c-1.41-.02-2.84,0-4.25,0h-1.32c-.19,0-.39,0-.59,0h-.44c-.78,0-1.56,0-2.34,0-.2.12-.38.1-.59,0-.08-.09-.17-.57-.08-.72,1.09-1.2,6.37-10.7,7.19-10.85.22-.04.45-.02.65.07.96.46,5.06,9.45,6.01,10.91,1.38-1.21,3.28-.78,2.5-3.01ZM15.01,55.59c-1.31-1.13.02-3.32,1.6-2.94.03,0,.06.02.09.03.27.05.48.19.63.36,0,0,0,0,0,0,0,0,0,.02.01.03.13.16.19.36.23.57.06.15.1.31.11.48.03.1.05.18.05.19.15,1.26-1.6,2.25-2.73,1.28Z"/>
        <path class="cls-5" d="M56.91,16.2c-.88.91-7.2,12.76-7.26,13.69-.04.69.12.62.7.56,5.61-.67,6.29-18.07,15.21-13.08,2.21,1.23,2.53,3.41,1.91,5.73l-8.59,15.73c-1.16.23-6,2.83-6.74,2.78-1.11-.06-1.37-4.04-2.65-3.64-.04.37-.23.72-.56.92,0,0,0,0,0,0-.02.04-.05.08-.08.12-.21.45-.41.9-.61,1.36,0,.04,0,.08-.02.12-.06.22-.12.44-.2.65.26,1.41,1.73,3.1,2.95,3.27,1.8.25,3.41-.93,4.98-1.47,1.33-.46,3.2-.73,4.24-1.54,1.23-.96,2.6-4.46,3.48-5.97,1.82-3.12,6.86-10.44,7.14-13.67.62-7.26-9.13-10.46-13.91-5.55Z"/>
        <path class="cls-5" d="M57.06,44.46c-.14.04-2.38,1.52-2.49,1.62-1.87,1.78-4.1,7.57-5.65,10.02-1,1.57-1.49,2.43-3.52,2.63-3.71.37-6.38-1.81-6.21-5.62.06-1.38,4.8-10.15,5.83-11.9.07-.12.16-.21.24-.28,0-.02.02-.03.03-.05.01-.02.01-.04.03-.06.03-.04.06-.07.09-.11.06-.21.15-.41.31-.56.4-.97.82-1.92,1.26-2.87.1-.22.38-.44.63-.53.1-.08.22-.13.35-.17.03-.03.06-.07.09-.1.24-.21,5.55-2.29,5.87-2.27.88.07,1.27,2.93,1.83,3.37.07.06,1.39-.21,1.45-.24.07-.04.71-1.47.72-1.55.02-.08.09-.76.13-1.25-.05-.14-.08-.28-.08-.42,0-.07,0-.14-.01-.21-.04-.22-.1-.44-.18-.65,0,0,0-.02-.01-.03-.06-.1-.1-.19-.12-.3-.25-.45-.55-.89-.76-1.09-.61-.59-1.45-1.02-2.32-.89-1.72.26-8.61,3.31-9.62,4.74-1.33,1.89-8.26,14.97-8.49,16.71-1.13,8.63,9.96,12.46,14.79,5.41,1.91-2.78,3.71-7.48,5.37-10.6.27-.5,2.86-3.5.46-2.77Z"/>
        <path class="cls-4" d="M41.67,37.37l-7.62.15,7.62-.15Z"/>
        <path class="cls-1" d="M41.53,34.29h-1.76c.58,0,1.17-.02,1.76,0Z"/>
        <path class="cls-14" d="M35.52,34.29h-1.32c.44,0,.88,0,1.32,0Z"/>
        <path class="cls-1" d="M43.43,34.44l-1.17-.15c.37.02.89-.13,1.17.15Z"/>
        <path class="cls-10" d="M17.64,57.58c-.47.22-.49.23-1.03.29l1.03-.29Z"/>
        <path class="cls-10" d="M12.65,62.85c-.24.03-.49-.02-.73,0,.17-.04.5-.38.73,0Z"/>
        <path class="cls-14" d="M11.04,37.07l.44-.73c-.14.25-.31.5-.44.73Z"/>
        <path class="cls-14" d="M2.1,54.21c.01-.24-.02-.49,0-.73.38.23.03.58,0,.73Z"/>
        <path class="cls-14" d="M13.39,32.83c.12-.21.24-.35.29-.44l-.29.44Z"/>
        <path class="cls-2" d="M30.83,34.29c-.15.25-.39.22-.59,0h.59Z"/>
        <path class="cls-2" d="M16.17,50.84c-.1.21-.33.11-.44.15l.44-.15Z"/>
        <path class="cls-12" d="M72.89,6.9l.15-.44c-.03.24-.11.3-.15.44Z"/>
        <path class="cls-9" d="M15.88,59.19l-.44.15s.19-.11.44-.15Z"/>
        <path class="cls-9" d="M15.29,59.34l-.44.15s.14-.12.44-.15Z"/>
        <path class="cls-2" d="M33.61,34.29h-.44c.15,0,.29,0,.44,0Z"/>
        <path class="cls-11" d="M73.05,34.98l7.1,4.1v8.53s-7.17,4.1-7.17,4.1l-7.2-4.21-.15-8.15v-.15l7.12-4.22h.29ZM77.38,40.82l-4.56-2.49-4.21,2.47-.04,5.21,4.26,2.45,4.35-2.44c.23-.1.22-.28.24-.49.17-1.44-.12-3.24-.03-4.72Z"/>
        <path class="cls-13" d="M35.1,57.02s0-.04,0-.06c-.21-.21-.41-.43-.61-.65-.04,0-.08-.01-.12-.02-.06-.02-.12-.04-.19-.07-.1.02-.2.04-.32.04-.01,0-.02,0-.03,0-.06.05-.13.08-.2.12-.76.7-1.74,1.09-2.62,1.6-.55.32-1.21.14-1.59-.33-.11-.08-.21-.17-.28-.28-1.71-1.08-4.32-.16-4.67,2-.58,3.68,4.33,5.17,5.88,1.75.1-.21.1-.48.21-.66.04-.07.12-.13.21-.19.14-.17.34-.29.59-.35.08-.05.16-.1.25-.13.03-.02.05-.04.09-.05.84-.66,1.82-1.12,2.68-1.75.09-.06.19-.09.3-.11.06-.07.12-.15.2-.2.07-.14.16-.27.29-.36-.04-.08-.07-.17-.07-.28ZM27.57,61.51c-.87,0-1.58-.71-1.58-1.58s.71-1.58,1.58-1.58,1.58.71,1.58,1.58-.71,1.58-1.58,1.58Z"/>
        <path class="cls-13" d="M58.13,54.11s-.04,0-.05.01c-.13.26-.28.52-.43.78,0,.04.01.08.02.13,0,.07,0,.13,0,.2.05.09.1.18.14.29,0,.01,0,.02,0,.03.06.04.12.09.17.15.9.51,1.58,1.31,2.34,1.99.48.42.52,1.1.18,1.61-.04.13-.1.25-.18.36-.49,1.97,1.2,4.16,3.36,3.81,3.68-.6,3.55-5.73-.18-6.13-.23-.03-.49.06-.7,0-.08-.02-.16-.07-.24-.14-.21-.08-.38-.23-.52-.45-.08-.05-.14-.12-.2-.2-.03-.02-.06-.04-.08-.06-.89-.59-1.63-1.37-2.5-2-.09-.06-.15-.15-.2-.25-.09-.03-.18-.07-.26-.13-.15-.03-.3-.07-.44-.16-.06.06-.14.12-.24.15ZM64.75,59.86c.27.83-.18,1.72-1.01,1.99s-1.72-.18-1.99-1.01.18-1.72,1.01-1.99,1.72.18,1.99,1.01Z"/>
        <path class="cls-13" d="M6.66,43.25s.06-.04.09-.06c.11-.1.22-.2.32-.32.02-.03.04-.06.06-.09.11-.18.26-.33.44-.44l.28-.12c.03-.09.06-.18.11-.27.03-.03.05-.07.08-.1-.36-.45-.7-.91-1.07-1.35-.51-.6-.44-1.44.06-2,.07-.16.17-.29.28-.41.94-2.32-.74-5.29-3.44-5.24-4.61.08-5.35,6.37-.86,7.53.28.07.61.02.85.11.1.04.19.11.28.21.24.13.43.35.55.64.08.08.15.18.21.28.03.03.06.06.08.09.56.5,1.05,1.07,1.54,1.63.04-.03.08-.07.13-.09ZM4.19,38.66c-1.06.19-2.07-.52-2.26-1.58-.19-1.06.52-2.07,1.58-2.26,1.06-.19,2.07.52,2.26,1.58.19,1.06-.52,2.07-1.58,2.26Z"/>
        <path class="cls-13" d="M67.21,10.99s.01.04.02.05c.27.11.54.24.81.37.04,0,.08-.02.12-.03.07,0,.13,0,.2,0,.08-.06.17-.12.28-.16.01,0,.02,0,.03,0,.04-.06.08-.13.14-.18.44-.94,1.19-1.67,1.81-2.48.39-.51,1.06-.6,1.59-.3.14.03.26.08.37.15,2,.34,4.05-1.51,3.54-3.64-.87-3.63-5.98-3.11-6.1.64,0,.23.09.48.06.69-.01.08-.06.17-.12.25-.06.21-.2.4-.41.55-.05.08-.11.15-.18.22-.02.03-.03.06-.06.08-.52.93-1.25,1.73-1.81,2.64-.06.09-.14.16-.23.22-.02.09-.06.18-.11.26-.01.15-.05.31-.13.45.07.06.13.13.17.23ZM72.44,3.96c.81-.33,1.73.05,2.06.85s-.05,1.73-.85,2.06-1.73-.05-2.06-.85.05-1.73.85-2.06Z"/>
        <path class="cls-11" d="M11.25,3.03l7.1,4.1v8.53s-7.17,4.1-7.17,4.1l-7.2-4.21-.15-8.15v-.15l7.12-4.22h.29ZM15.58,8.87l-4.56-2.49-4.21,2.47-.04,5.21,4.26,2.45,4.35-2.44c.23-.1.22-.28.24-.49.17-1.44-.12-3.24-.03-4.72Z"/>
      </g>
    </g>
  </g>
</svg>