<?xml version="1.0" encoding="UTF-8"?>
<svg id="Layer_2" data-name="Layer 2" xmlns="http://www.w3.org/2000/svg" viewBox="0 0 311.08 271.24">
  <defs>
    <style>
      .cls-1 {
        fill: #47bfda;
      }

      .cls-2 {
        fill: #3ca9d3;
      }

      .cls-3 {
        fill: #808285;
        font-family: OpenSans-Bold, 'Open Sans';
        font-weight: 700;
      }

      .cls-4 {
        fill: #69c3df;
      }

      .cls-5 {
        fill: #72c8f1;
      }

      .cls-6 {
        font-size: 64.48px;
      }

      .cls-7 {
        fill: #6dc8c7;
      }

      .cls-8 {
        fill: #51b1d5;
      }

      .cls-9 {
        fill: #74c5df;
      }

      .cls-10 {
        fill: #6fc8c7;
      }

      .cls-11 {
        fill: #8ec9e0;
      }

      .cls-12 {
        fill: #6dc9c7;
      }

      .cls-13 {
        font-size: 19.89px;
        letter-spacing: 0em;
      }

      .cls-14 {
        fill: #4eb9d9;
      }
    </style>
  </defs>
  <g id="Layer_1-2" data-name="Layer 1">
    <g>
      <path class="cls-7" d="M191.32,51.5c-2.63-7.31-21.03-38.84-26.35-44.27-3.68-3.74-9.59-6.72-14.87-7.19-1.35-.12-2.77.09-4.13,0l-4.95,1.04c-6.55,1.93-11.57,6.81-15.19,12.43-15.03,23.35-29.12,52.97-42.98,77.66l-.83,1.24c-1.84,3.28-3.54,6.63-5.36,9.9l-1.24,2.06c-2.53,4.57-5.8,9.08-7.43,14.02-.47-.73-1.48-1.73-2.68-2.84-.51.75-1.32,1.28-2.46,1.35-.08.19-.18.37-.29.55-.24.88-.35,1.83-.67,2.68-.08.21-.18.42-.29.61l2.69,2.81c-3.3,5.37-7.15,10.79-9.97,16.44-1.56,3.12-3.78,7.06-4.06,10.58.29.63.29,1.32,0,2.06-2.9,13.67,14.75,27.37,27.64,24.33.74-.29,1.42-.29,2.06,0,4.65-.63,11.24-3.02,12.89-7.94,1.35-4.03-.87-2.78-3.81-2.37l-1.24.41c-.14.01-.28-.01-.41,0l-1.24.41c-8.61.41-19.59,1.51-24.68-6.88-6.69-11.02,4.19-20.25,9.49-29.12,21.57-36.11,40.42-75.03,62.47-110.75,23.19-37.54,41.91,29.21,53.38,43.46,1.32,1.6,1.64-2.25,2.12-3.24,1.94-4.03,4.03-4.86,2.39-9.41Z"/>
      <path class="cls-7" d="M175.29,86.4c-1.41-4.03-11.99-23.48-14.66-26.58-6.48-7.54-15.56-7.13-21.6.71-5.71,7.42-14.18,22.81-19.09,30.89-10.33,16.99-19.51,34.76-30.08,51.71l-1.24.41c-2.75.99-4.55.34-6.83,3.28-5.89,7.65,0,17.21,9.3,16.1l2.89-.82c4.47-2.05,6.86-6.71,5.89-11.55-.48-2.42-2.08-1.66-1-4.8,1.34-3.9,20.14-35.49,23.01-38.86.35-.41,1.32-1.11,1.81-1.29,1.5-.26,3.05-.42,4.54,0,3.93.01,8.12.52,11.96,0l21.45-.41c.93-.42,5.31-7.93,4.95-8.25-1.06-.32-2.16-.46-3.3-.41-.68-.04-1.38.02-2.06,0h-4.95c-3.98-.06-7.98,0-11.96,0h-3.71c-.54,0-1.1,0-1.65,0h-1.24c-2.2,0-4.41,0-6.6,0-.57.34-1.08.27-1.65,0-.23-.26-.47-1.59-.21-2.03,3.08-3.39,17.93-30.13,20.25-30.55.62-.11,1.26-.07,1.83.21,2.71,1.29,14.26,26.6,16.92,30.72,3.89-3.4,9.23-2.2,7.03-8.48ZM86.6,156.49c-3.7-3.18.05-9.33,4.51-8.27.09.02.17.05.24.08.76.15,1.35.52,1.77,1.03,0,0,.02-.01.02,0,0,0,.03.06.04.09.36.46.55,1.01.65,1.59.18.42.29.88.31,1.34.09.29.15.5.15.55.41,3.54-4.51,6.34-7.69,3.6Z"/>
      <path class="cls-5" d="M204.54,45.59c-2.49,2.55-20.28,35.93-20.44,38.55-.12,1.93.34,1.76,1.97,1.56,15.79-1.89,17.7-50.87,42.83-36.82,6.21,3.47,7.12,9.59,5.37,16.12l-24.18,44.28c-3.27.66-16.9,7.96-18.97,7.84-3.12-.18-3.85-11.38-7.47-10.24-.11,1.05-.64,2.03-1.59,2.58,0,0,0,0,0,.01-.06.12-.14.22-.22.33-.59,1.27-1.16,2.54-1.72,3.82-.02.11-.02.22-.05.33-.16.62-.34,1.23-.55,1.82.73,3.96,4.86,8.73,8.3,9.2,5.06.69,9.59-2.62,14.02-4.15,3.76-1.3,9.01-2.06,11.94-4.35,3.46-2.7,7.32-12.54,9.81-16.8,5.13-8.77,19.31-29.38,20.09-38.48,1.74-20.43-25.69-29.45-39.15-15.63Z"/>
      <path class="cls-5" d="M204.95,125.16c-.4.12-6.7,4.28-7,4.57-5.27,5-11.54,21.31-15.92,28.21-2.81,4.43-4.19,6.84-9.91,7.41-10.45,1.03-17.96-5.11-17.48-15.83.18-3.9,13.52-28.58,16.4-33.5.2-.34.44-.58.69-.8.03-.04.05-.09.08-.13.03-.06.04-.12.08-.18.08-.1.16-.21.24-.31.16-.59.43-1.15.87-1.57,1.11-2.73,2.31-5.42,3.56-8.09.29-.63,1.08-1.23,1.78-1.48.28-.22.62-.37.99-.49.09-.09.17-.2.26-.27.67-.58,15.63-6.45,16.52-6.39,2.49.19,3.58,8.25,5.14,9.5.2.16,3.9-.58,4.08-.68.21-.12,1.99-4.13,2.03-4.37.04-.22.24-2.15.36-3.51-.14-.38-.23-.78-.23-1.18,0-.2-.03-.4-.04-.6-.12-.63-.29-1.24-.52-1.83-.01-.02-.02-.05-.03-.07-.16-.27-.27-.55-.35-.84-.71-1.27-1.56-2.5-2.14-3.06-1.71-1.65-4.09-2.87-6.54-2.5-4.85.74-24.24,9.31-27.08,13.36-3.74,5.33-23.25,42.15-23.89,47.04-3.19,24.28,28.03,35.09,41.64,15.23,5.37-7.83,10.45-21.06,15.11-29.85.75-1.42,8.05-9.85,1.3-7.79Z"/>
      <path class="cls-4" d="M161.65,105.19l-21.45.41,21.45-.41Z"/>
      <path class="cls-1" d="M161.23,96.53h-4.95c1.64.02,3.31-.05,4.95,0Z"/>
      <path class="cls-14" d="M144.32,96.53h-3.71c1.23,0,2.48,0,3.71,0Z"/>
      <path class="cls-1" d="M166.6,96.94l-3.3-.41c1.03.06,2.5-.38,3.3.41Z"/>
      <path class="cls-9" d="M93.98,162.1c-1.34.61-1.38.64-2.89.82l2.89-.82Z"/>
      <path class="cls-9" d="M79.96,176.94c-.67.09-1.39-.06-2.06,0,.47-.11,1.4-1.07,2.06,0Z"/>
      <path class="cls-14" d="M75.42,104.37l1.24-2.06c-.39.7-.87,1.4-1.24,2.06Z"/>
      <path class="cls-14" d="M50.25,152.61c.04-.68-.06-1.38,0-2.06,1.08.66.09,1.62,0,2.06Z"/>
      <path class="cls-14" d="M82.02,92.41c.33-.58.69-.99.83-1.24l-.83,1.24Z"/>
      <path class="cls-2" d="M131.12,96.53c-.41.69-1.11.62-1.65,0h1.65Z"/>
      <path class="cls-2" d="M89.86,143.13c-.28.59-.92.3-1.24.41l1.24-.41Z"/>
      <path class="cls-11" d="M249.52,19.42l.41-1.24c-.09.67-.31.86-.41,1.24Z"/>
      <path class="cls-8" d="M89.03,166.63l-1.24.41c.06,0,.52-.31,1.24-.41Z"/>
      <path class="cls-8" d="M87.38,167.04l-1.24.41c.07,0,.4-.35,1.24-.41Z"/>
      <path class="cls-2" d="M138.95,96.53h-1.24c.41,0,.83,0,1.24,0Z"/>
      <path class="cls-10" d="M249.97,98.47l19.98,11.54-.02,24.03-20.16,11.54-20.26-11.86-.41-22.94v-.41l20.05-11.88h.82ZM262.18,114.92l-12.83-7.01-11.86,6.95-.12,14.67,11.99,6.9,12.23-6.86c.64-.29.61-.78.68-1.37.47-4.06-.34-9.11-.09-13.27Z"/>
      <path class="cls-12" d="M143.16,160.52c0-.06.01-.1.02-.16-.59-.59-1.16-1.21-1.72-1.83-.12-.02-.24-.04-.35-.07-.18-.05-.35-.12-.52-.2-.28.07-.58.12-.9.12-.03,0-.06,0-.09,0-.17.13-.35.24-.55.33-2.15,1.96-4.89,3.06-7.38,4.51-1.55.9-3.4.41-4.47-.93-.32-.22-.59-.49-.8-.8-4.83-3.04-12.17-.45-13.13,5.63-1.64,10.37,12.18,14.54,16.55,4.93.27-.59.28-1.35.59-1.87.12-.2.33-.37.58-.53.39-.49.96-.81,1.65-.99.21-.15.45-.27.71-.37.08-.05.15-.11.24-.15,2.37-1.85,5.11-3.16,7.55-4.91.24-.18.54-.26.85-.32.16-.21.34-.41.56-.57.2-.39.46-.75.81-1.02-.11-.22-.19-.47-.19-.78ZM121.96,173.16c-2.46,0-4.45-1.99-4.45-4.45s1.99-4.45,4.45-4.45,4.45,1.99,4.45,4.45-1.99,4.45-4.45,4.45Z"/>
      <path class="cls-12" d="M207.98,152.33c-.05.02-.1.02-.15.03-.38.75-.78,1.48-1.2,2.2.01.12.04.24.04.35.01.19,0,.37-.02.56.15.24.29.51.4.82,0,.03.01.06.02.08.17.12.34.26.49.42,2.53,1.42,4.44,3.68,6.59,5.6,1.34,1.19,1.45,3.11.52,4.54-.11.38-.28.71-.51,1.01-1.37,5.53,3.39,11.7,9.46,10.71,10.36-1.69,10-16.12-.5-17.26-.65-.07-1.37.16-1.96.03-.23-.05-.46-.2-.69-.39-.58-.22-1.07-.66-1.46-1.26-.21-.15-.4-.35-.58-.56-.07-.06-.15-.11-.22-.18-2.5-1.67-4.6-3.87-7.03-5.63-.24-.18-.42-.43-.57-.71-.25-.09-.5-.2-.72-.35-.43-.07-.85-.2-1.23-.45-.18.17-.39.33-.68.42ZM226.61,168.51c.77,2.33-.5,4.85-2.83,5.61s-4.85-.5-5.62-2.83.5-4.85,2.83-5.61,4.85.5,5.62,2.83Z"/>
      <path class="cls-12" d="M63.09,121.76c.09-.05.16-.11.25-.17.32-.27.62-.57.89-.89.05-.08.12-.16.17-.25.31-.52.72-.93,1.24-1.24l.8-.34c.08-.26.16-.52.3-.76.07-.09.14-.19.22-.28-1.01-1.27-1.97-2.57-3.01-3.8-1.43-1.69-1.23-4.05.17-5.64.2-.44.47-.82.8-1.15,2.65-6.52-2.08-14.9-9.68-14.76-12.97.24-15.07,17.94-2.43,21.19.78.2,1.71.05,2.4.31.27.1.53.32.78.59.68.37,1.2.99,1.56,1.79.23.22.43.49.6.79.08.09.17.16.24.26,1.57,1.41,2.95,3.01,4.34,4.6.12-.09.23-.19.37-.26ZM56.13,108.83c-2.99.53-5.84-1.46-6.37-4.45-.53-2.99,1.47-5.84,4.45-6.36,2.99-.53,5.84,1.46,6.37,4.45.53,2.99-1.47,5.84-4.45,6.36Z"/>
      <path class="cls-12" d="M232.5,37.14s.05.09.08.13c.82.14,1.64.31,2.46.49.11-.05.21-.11.32-.15.17-.07.36-.1.54-.14.19-.22.4-.43.67-.62.02-.02.05-.03.07-.04.06-.2.15-.4.26-.59.6-2.84,2.19-5.34,3.38-7.96.74-1.63,2.53-2.31,4.18-1.85.39-.01.76.06,1.12.18,5.69-.34,10.16-6.72,7.4-12.22-4.7-9.39-18.37-4.74-16.33,5.62.13.64.56,1.26.61,1.86.02.23-.05.5-.16.77-.03.62-.31,1.22-.76,1.77-.08.25-.21.49-.36.72-.04.09-.06.18-.11.27-.84,2.88-2.32,5.54-3.28,8.39-.1.29-.29.53-.5.76-.01.27-.04.53-.12.79.06.43.06.87-.06,1.3.22.12.43.27.61.52ZM242.38,14.53c2-1.43,4.77-.97,6.2,1.03s.97,4.78-1.03,6.2-4.77.97-6.2-1.03c-1.43-2-.97-4.78,1.03-6.2Z"/>
      <path class="cls-10" d="M76,8.52l19.98,11.54-.02,24.03-20.16,11.54-20.26-11.86-.41-22.94v-.41l20.05-11.88h.82ZM88.21,24.98l-12.83-7.01-11.86,6.95-.12,14.67,11.99,6.9,12.23-6.86c.64-.29.61-.78.68-1.37.47-4.06-.34-9.11-.09-13.27Z"/>
    </g>
    <text class="cls-3" transform="translate(0 252.23)"><tspan class="cls-6" x="0" y="0">AI</tspan><tspan class="cls-13" x="65.84" y="0"> </tspan><tspan class="cls-6" x="71" y="0">LINKRA</tspan></text>
  </g>
</svg>